<svg width="32" height="32" xmlns="http://www.w3.org/2000/svg" xml:space="preserve" version="1.0">
 <desc>Created with Sketch.</desc>

 <g>
  <title>Layer 1</title>
  <ellipse stroke="null" ry="16" rx="16" id="svg_2" cy="16" cx="16" fill="#F3BA2F"/>
  <path stroke="null" fill="#ffffff" d="m18.23989,23.67808l0,2.60602l-2.27219,1.33532l-2.20758,-1.33532l0,-2.60602l2.20758,1.33532l2.27219,-1.33532zm-12.15786,-9.0134l2.20758,1.33532l0,4.46901l3.80135,2.27219l0,2.60602l-6.00893,-3.5429l0,-7.13964zm19.77132,0l0,7.15041l-6.07354,3.5429l0,-2.60602l3.80135,-2.27219l0,-4.46901l2.27219,-1.34609zm-6.08431,-3.5429l2.27219,1.33532l0,0l0,2.60602l-3.80135,2.27219l0,4.53362l-2.20758,1.33532l-2.19681,-1.33532l0,-4.54439l-3.94134,-2.27219l0,-2.60602l2.27219,-1.33532l3.80135,2.27219l3.80135,-2.26143zm-9.87489,5.80433l2.20758,1.33532l0,2.60602l-2.20758,-1.33532l0,-2.60602zm12.14709,0l0,2.60602l-2.20758,1.33532l0,-2.60602l2.20758,-1.33532zm-13.75162,-8.07652l2.27219,1.33532l-2.27219,1.33532l0,2.60602l-2.20758,-1.33532l0,-2.60602l2.20758,-1.33532zm15.35616,0l2.27219,1.33532l0,2.60602l-2.27219,1.33532l0,-2.60602l-2.20758,-1.33532l2.20758,-1.33532zm-7.67808,0l2.27219,1.33532l-2.27219,1.33532l-2.20758,-1.33532l2.20758,-1.33532zm0,-4.46901l6.07354,3.5429l-2.20758,1.33532l-3.80135,-2.27219l-3.87673,2.27219l-2.20758,-1.33532l6.0197,-3.5429z" class="st0" id="binancedex"/>
 </g>
</svg>