<svg width="32" height="32" xmlns="http://www.w3.org/2000/svg">
 <!-- Created with SVG Editor - http://github.com/mzalive/SVG Editor/ -->

 <g>
  <title>background</title>
  <rect fill="none" id="canvas_background" height="34" width="34" y="-1" x="-1"/>
  <g display="none" overflow="visible" y="0" x="0" height="100%" width="100%" id="canvasGrid">
   <rect fill="url(#gridpattern)" stroke-width="0" y="1" x="1" height="400" width="580"/>
  </g>
 </g>
 <g>
  <title>Layer 1</title>
  <g id="svg_64">
   <g stroke="null" id="svg_65">
    <path stroke="null" id="svg_55" fill="#f7931a" d="m31.410411,19.852135c-2.126231,8.528297 -10.76398,13.718505 -19.293279,11.591779c-8.525817,-2.126229 -13.716028,-10.76447 -11.588803,-19.29227c2.125236,-8.529292 10.762985,-13.719997 19.289797,-11.593768c8.528802,2.126229 13.718516,10.765464 11.592285,19.294259z"/>
    <path stroke="null" id="svg_56" fill="#FFF" d="m22.98807,13.733133c0.316895,-2.118269 -1.295936,-3.257001 -3.501266,-4.016653l0.715377,-2.869464l-1.746653,-0.435295l-0.696472,2.793847c-0.459174,-0.11442 -0.930786,-0.222374 -1.399412,-0.329332l0.701447,-2.812254l-1.745658,-0.435295l-0.715874,2.868469c-0.380075,-0.086561 -0.753185,-0.172128 -1.115351,-0.262172l0.00199,-0.008955l-2.408799,-0.601453l-0.464647,1.86555s1.295936,0.296995 1.268575,0.315402c0.707417,0.176605 0.835269,0.644734 0.813878,1.015854l-0.814873,3.26894c0.048753,0.012437 0.111933,0.030346 0.18158,0.058205c-0.058205,-0.014427 -0.12039,-0.030346 -0.184565,-0.045768l-1.142215,4.579302c-0.086562,0.214911 -0.30595,0.537278 -0.800446,0.414898c0.017412,0.025371 -1.26957,-0.316895 -1.26957,-0.316895l-0.867108,1.999372l2.272987,0.56663c0.422858,0.105963 0.837259,0.216901 1.245193,0.321372l-0.722839,2.902298l1.744663,0.435295l0.715874,-2.871454c0.476586,0.129345 0.939243,0.24874 1.39195,0.36117l-0.713387,2.858022l1.746653,0.435295l0.722839,-2.896825c2.978414,0.563645 5.21807,0.336296 6.160796,-2.357557c0.759652,-2.169012 -0.037808,-3.420174 -1.604871,-4.236041c1.14122,-0.263167 2.000866,-1.013864 2.230204,-2.564509zm-3.990787,5.596151c-0.539766,2.169012 -4.191769,0.996452 -5.375772,0.702442l0.959142,-3.845022c1.184003,0.295503 4.980772,0.880539 4.41663,3.14258zm0.540264,-5.627492c-0.492505,1.973005 -3.53211,0.970583 -4.518116,0.724828l0.869595,-3.487334c0.986006,0.245755 4.161422,0.704432 3.64852,2.762506z"/>
   </g>
  </g>
 </g>
</svg>