<svg width="32" height="32" xmlns="http://www.w3.org/2000/svg">
 <!-- Created with SVG Editor - http://github.com/mzalive/SVG Editor/ -->

 <g>
  <title>background</title>
  <rect fill="none" id="canvas_background" height="34" width="34" y="-1" x="-1"/>
  <g display="none" overflow="visible" y="0" x="0" height="100%" width="100%" id="canvasGrid">
   <rect fill="url(#gridpattern)" stroke-width="0" y="0" x="0" height="100%" width="100%"/>
  </g>
 </g>
 <g>
  <title>Layer 1</title>
  <g stroke="null" id="svg_16">
   <circle stroke="null" transform="matrix(0.01592680529332305,0,0,0.01592680529332305,-341.5975792301324,-341.597589901837) " id="svg_12" fill="#2573c2" r="1000" cy="22447.963931" cx="22452.561855"/>
   <g stroke="null" transform="matrix(0.01592680529332305,0,0,0.01592680529332305,-341.5975792301324,-341.597589901837) " id="svg_13" fill="#fff">
    <path stroke="null" id="svg_14" d="m23105.161192,22184.763226a143.65,143.65 0 0 0 -19.2,-63.6c-10,-20 -27.8,-35.6 -48.6,-43.6a143.51,143.51 0 0 0 -68.4,-15l-887.6,0l-63.6,190.6l804.2,0l-127,389.6l-804,0l-63.6,190.6l891.8,0a246.33,246.33 0 0 0 77.8,-15c25,-14.2 53.6,-28.6 77.8,-48.6a382.69,382.69 0 0 0 63.6,-63.6a432.2,432.2 0 0 0 39.2,-73.4l117.8,-370.4a137.38,137.38 0 0 0 9.8,-77.6z"/>
    <path stroke="null" id="svg_15" d="m22334.761192,22359.563226l-473.2,0l-63.6,176.2l478,0l58.8,-176.2z"/>
   </g>
  </g>
 </g>
</svg>