<svg width="32" height="32" xmlns="http://www.w3.org/2000/svg">

 <title>e</title>
 <g>
  <title>Layer 1</title>
  <ellipse stroke-width="0" ry="16" rx="16" id="svg_1" cy="16" cx="16" stroke="#000" fill="#fff"/>
  <g stroke="null" data-name="Layer 2" id="Layer_2">
   <g stroke="null" id="svg8">
    <g stroke="null" id="layer5">
     <g stroke="null" id="g1627">
      <path stroke="null" fill="#3ab83a" d="m6.84477,17.32255c3.22623,1.71333 6.59272,3.50676 9.19285,4.89446l9.11761,-4.89446c-3.30134,4.90443 -6.05207,8.98744 -9.11761,13.50619c-3.07101,-4.50879 -6.46254,-9.48394 -9.19285,-13.50619zm0.35066,-1.35281l8.85215,-4.72358l8.73693,4.68905l-8.73194,4.7288l-8.85714,-4.69427zm8.84219,-6.23695l-9.19285,4.8394l9.15274,-13.40093l9.15772,13.43096l-9.11761,-4.86942z" class="cls-1" id="path1599"/>
      <path stroke="null" fill="#0b8311" d="m16.03762,22.21701l9.11761,-4.89446c-3.30134,4.90443 -9.11761,13.50619 -9.11761,13.50619l0,-8.61173zm0.00997,-10.97085l8.73693,4.68905l-8.73194,4.7288l-0.00498,-9.41784zm-0.00997,-1.51302l-0.04011,-8.56189l9.15772,13.43096l-9.11761,-4.86906z" class="cls-2" id="path1593"/>
      <path stroke="null" fill="#0b8311" d="m7.19543,15.96986l8.85263,0.72649l8.73693,-0.75651l-8.73242,4.72915l-8.85714,-4.69913z" class="cls-2" id="path1603"/>
      <path stroke="null" fill="#146714" d="m16.04759,16.69634l8.73693,-0.75651l-8.73194,4.72915l-0.00498,-3.97265z" class="cls-3" id="path1606"/>
     </g>
    </g>
   </g>
  </g>
 </g>
</svg>