<svg width="32" height="32" xmlns="http://www.w3.org/2000/svg" version="1.1" xml:space="preserve">
 <g id="Layer_1">
  <title>Layer 1</title>
  <ellipse stroke-width="0" ry="16" rx="16" id="svg_1" cy="16" cx="16" stroke="#000" fill="#fff"/>
  <g stroke="null">
   <g stroke="null" fill="#000000" transform="translate(0 400) scale(0.1 -0.1)">
    <path stroke="null" d="m153.76414,3981.84453c-5.07182,-2.82691 -76.74239,-41.65541 -99.77343,-53.96079c-6.81785,-3.65836 -13.13683,-7.15043 -13.96828,-7.6493c-1.24717,-0.83145 0.91459,-2.41119 15.79746,-10.97508c9.56162,-5.48754 36.83302,-21.20185 60.6955,-35.00384l43.48458,-25.10965l22.86474,13.13683c12.55482,7.15043 22.7816,13.30312 22.86474,13.55256c0,0.7483 -17.54349,10.97508 -18.79066,10.97508c-0.49887,0 -6.56842,-3.24264 -13.46941,-7.23357c-7.23357,-4.15723 -13.30312,-7.15043 -14.13457,-6.98414c-0.7483,0.24943 -14.88287,8.23131 -31.34548,17.70978c-16.46262,9.56162 -34.1724,19.70525 -39.24421,22.69845c-5.15496,2.91006 -9.39533,5.57068 -9.39533,5.90326c0.08314,0.41572 60.86179,33.50724 75.8278,41.23968l4.82238,2.49434l4.82238,-2.49434c2.57748,-1.33031 21.36814,-11.47394 41.73855,-22.44902c20.37041,-11.05822 41.15654,-22.19959 46.14521,-24.94336l9.1459,-4.82238l9.81105,5.65383c8.48074,4.90553 9.56162,5.82012 8.31445,6.65156c-0.83145,0.49887 -7.6493,4.24037 -15.21545,8.31445c-7.56615,4.07408 -24.19506,13.05369 -36.99931,19.95469c-53.0462,28.768 -66.93134,36.16787 -67.92907,36.16787c-0.58201,-0.08314 -3.32578,-1.33031 -6.06955,-2.82691z"/>
    <path stroke="null" d="m31.12597,3839.6674l0,-69.34253l61.02808,-37.49818c33.50724,-20.61984 61.19437,-37.49818 61.52695,-37.49818c0.24943,0 0.41572,32.26007 0.33258,71.67058l-0.24943,71.67058l-23.28047,13.55256l-23.28047,13.46941l-0.24943,-10.47621c-0.08314,-5.82012 -0.08314,-10.97508 0.16629,-11.47394c0.16629,-0.49887 6.31898,-4.40666 13.71885,-8.64703l13.38627,-7.73244l0,-48.5564l0,-48.63955l-1.82918,0.99773c-1.82918,0.99773 -36.91617,22.53217 -66.76505,40.99025l-14.96601,9.31219l-0.24943,58.53374l-0.16629,58.61689l-9.1459,5.2381c-4.98867,2.82691 -9.31219,5.15496 -9.56162,5.15496c-0.24943,0 -0.41572,-31.1792 -0.41572,-69.34253z"/>
    <path stroke="null" d="m232.33571,3876.91614c-30.43089,-17.62664 -57.7023,-33.4241 -60.6955,-35.08699l-5.40439,-3.15949l-0.24943,-27.18826c-0.08314,-16.79519 0.08314,-27.18826 0.58201,-27.18826c0.41572,0 4.82238,2.32805 9.81105,5.2381l8.97961,5.2381l0.41572,16.46262l0.41572,16.37947l22.0333,12.72111c12.1391,6.98414 30.84662,17.79293 41.57226,23.94562l19.53896,11.30765l0.24943,-46.3115c0.08314,-25.44222 0,-46.64408 -0.16629,-47.14294c-0.33258,-0.91459 -6.48527,-4.73924 -64.93587,-40.65767c-19.20638,-11.80652 -35.75214,-21.95015 -36.74988,-22.61531c-1.82918,-1.08088 -1.91232,-1.57975 -1.91232,-12.38853c0,-9.22904 0.24943,-11.22451 1.16402,-10.89193c0.58201,0.24943 12.47168,7.48301 26.35681,15.96375c13.88514,8.56389 41.07339,25.27593 60.44607,37.1656l35.08699,21.61758l0,69.34253c0,38.16334 -0.24943,69.34253 -0.58201,69.25939c-0.41572,0 -25.52537,-14.384 -55.95626,-32.01064z"/>
   </g>
  </g>
 </g>

</svg>