<svg width="32" height="32" xmlns="http://www.w3.org/2000/svg">
 <!-- Created with SVG Editor - http://github.com/mzalive/SVG Editor/ -->

 <g>
  <title>background</title>
  <rect fill="none" id="canvas_background" height="34" width="34" y="-1" x="-1"/>
  <g display="none" overflow="visible" y="0" x="0" height="100%" width="100%" id="canvasGrid">
   <rect fill="url(#gridpattern)" stroke-width="0" y="0" x="0" height="100%" width="100%"/>
  </g>
 </g>
 <g>
  <title>Layer 1</title>
  <g stroke="null" transform="rotate(180 16.000001907348633,16) " id="svg_7">
   <path stroke="null" id="svg_4" fill="#bebebe" d="m0.301024,16.000096c0,-8.670402 7.028574,-15.699166 15.69888,-15.699166c8.670402,0 15.699071,7.028764 15.699071,15.699166c0,8.670306 -7.028669,15.698975 -15.699071,15.698975c-8.670211,0 -15.69888,-7.028669 -15.69888,-15.698975"/>
   <path stroke="null" id="svg_5" fill="#bebebe" d="m3.634078,15.999905c0,-6.829079 5.536367,-12.365922 12.365827,-12.365922c6.829365,0 12.366113,5.536843 12.366113,12.365922c0,6.829651 -5.536748,12.366113 -12.366113,12.366113c-6.829555,0 -12.365827,-5.536367 -12.365827,-12.366113"/>
   <path stroke="null" id="svg_6" fill="#fff" d="m16.917467,11.80622l-1.019694,3.83961l-2.414156,0.881993l-0.600487,2.256524l0.020503,0.055977l2.376393,-0.868165l-1.712205,6.447158l4.855871,0l2.239169,-8.41369l1.86955,-0.682975l0.617748,-2.326329l-1.86812,0.682402l1.319699,-4.958575l-12.923402,0l-0.828495,3.086069l8.067626,0"/>
  </g>
 </g>
</svg>