<svg width="32" height="32" xmlns="http://www.w3.org/2000/svg" xml:space="preserve" version="1.1">

 <g>
  <title>Layer 1</title>
  <ellipse stroke="null" ry="16" rx="16" id="svg_3" cy="16" cx="16" fill="#ffffff"/>
  <g stroke="null" id="svg_1">
   <path stroke="null" id="svg_2" fill="#8247E5" d="m22.83383,11.45568c-0.48565,-0.27752 -1.11006,-0.27752 -1.6651,0l-3.88522,2.28951l-2.6364,1.45696l-3.81584,2.28951c-0.48565,0.27752 -1.11006,0.27752 -1.6651,0l-2.9833,-1.80385c-0.48565,-0.27752 -0.83255,-0.83255 -0.83255,-1.45696l0,-3.46895c0,-0.55503 0.27752,-1.11006 0.83255,-1.45696l2.9833,-1.73447c0.48565,-0.27752 1.11006,-0.27752 1.6651,0l2.9833,1.80385c0.48565,0.27752 0.83255,0.83255 0.83255,1.45696l0,2.28951l2.6364,-1.52634l0,-2.35889c0,-0.55503 -0.27752,-1.11006 -0.83255,-1.45696l-5.55032,-3.26081c-0.48565,-0.27752 -1.11006,-0.27752 -1.6651,0l-5.68908,3.33019c-0.55503,0.27752 -0.83255,0.83255 -0.83255,1.38758l0,6.52162c0,0.55503 0.27752,1.11006 0.83255,1.45696l5.6197,3.26081c0.48565,0.27752 1.11006,0.27752 1.6651,0l3.81584,-2.22013l2.6364,-1.52634l3.81584,-2.22013c0.48565,-0.27752 1.11006,-0.27752 1.6651,0l2.9833,1.73447c0.48565,0.27752 0.83255,0.83255 0.83255,1.45696l0,3.46895c0,0.55503 -0.27752,1.11006 -0.83255,1.45696l-2.91392,1.73447c-0.48565,0.27752 -1.11006,0.27752 -1.6651,0l-2.9833,-1.73447c-0.48565,-0.27752 -0.83255,-0.83255 -0.83255,-1.45696l0,-2.22013l-2.6364,1.52634l0,2.28951c0,0.55503 0.27752,1.11006 0.83255,1.45696l5.6197,3.26081c0.48565,0.27752 1.11006,0.27752 1.6651,0l5.6197,-3.26081c0.48565,-0.27752 0.83255,-0.83255 0.83255,-1.45696l0,-6.591c0,-0.55503 -0.27752,-1.11006 -0.83255,-1.45696l-5.6197,-3.26081z" class="st0"/>
  </g>
 </g>
</svg>