<svg width="32" height="32" xmlns="http://www.w3.org/2000/svg">
 <!-- Created with SVG Editor - http://github.com/mzalive/SVG Editor/ -->

 <g>
  <title>background</title>
  <rect fill="none" id="canvas_background" height="34" width="34" y="-1" x="-1"/>
  <g display="none" overflow="visible" y="0" x="0" height="100%" width="100%" id="canvasGrid">
   <rect fill="url(#gridpattern)" stroke-width="0" y="0" x="0" height="100%" width="100%"/>
  </g>
 </g>
 <g>
  <title>Layer 1</title>
  <style transform="matrix(0.0002763079561427517,0,0,0.0002763079561427517,0,0) " type="text/css">.st0{fill:#F00500;}
	.st1{fill:#FFFFFF;}
	.st2{fill:none;}
	.st3{fill:#FFA409;}
	.st4{fill:#FF9300;}
	.st5{fill:#FF8300;}</style>
  <g stroke="null" transform="rotate(180 15.999892234802244,15.999829292297365) " id="svg_65">
   <g stroke="null" transform="matrix(-0.047975293316045435,0,0,-0.047975293316045435,2808.6249371394197,2777.4957916868466) " id="svg_34">
    <g stroke="null" id="svg_57">
     <path stroke="null" d="m58358.552362,57293.396495c-16.7,16.7 -32,34.8 -45.6,54.1l-4.3,-1.4c-24.8,-8.1 -50.5,-13.1 -76.4,-14.8c-7.8,-0.6 -36.9,-0.6 -46.4,0c-28.7,1.9 -50.7,6.2 -75.7,14.9c-1,0.4 -1.9,0.7 -2.8,1c-14.1,-19.2 -29.8,-37.2 -47.1,-53.7c83,-42.5 180.1,-47.6 267,-14.1c9.3,3.5 18.4,7.6 27.3,12l4,2z" class="st0" id="svg_63"/>
     <path stroke="null" d="m58513.352362,57672.696495c-12.6,35.9 -31.5,69.2 -56,98.2c-13.3,15.6 -28,29.9 -43.8,42.9c-37,29.8 -80.2,51.1 -126.3,62.3c-51,12.3 -104.2,12.3 -155.2,0c-46.2,-11.2 -89.3,-32.5 -126.3,-62.3c-15.8,-13 -30.5,-27.3 -43.8,-42.9c-70.5,-83.3 -91.9,-197.7 -56,-300.8c6.8,-19.1 15.3,-37.5 25.5,-55c4.7,-8 10.5,-17 13.3,-20.7c9.6,41.3 21.4,77.6 25.8,90.7c-0.3,0.7 -0.7,1.5 -1.1,2.2c-23.3,47.2 -35.9,92.7 -38.9,141.1c0,0.6 -0.1,1.3 -0.1,1.9c-0.8,14.5 -0.4,21.4 2,30.5c7.5,28.5 30.6,59.9 66.8,90.7c59.3,50.4 139.7,86.8 200.6,91c63.5,4.3 157.2,-32.8 219.6,-87c9.8,-8.7 19,-17.9 27.6,-27.7c6.2,-7.2 15.4,-19.6 14.7,-19.6c-0.2,0 0,-0.2 0.4,-0.4c0.3,-0.2 0.6,-0.5 0.4,-0.7c-0.1,-0.1 0.1,-0.4 0.4,-0.5c0.3,-0.1 0.5,-0.3 0.4,-0.5s0,-0.4 0.4,-0.5c0.3,-0.1 0.4,-0.4 0.3,-0.6c-0.1,-0.2 0,-0.4 0.2,-0.4c0.2,0 0.4,-0.3 0.4,-0.5s0.2,-0.5 0.4,-0.5c0.2,0 0.4,-0.2 0.4,-0.4c0.3,-0.8 0.8,-1.6 1.3,-2.3c1.5,-2.3 7.5,-13 8.3,-14.8c5.7,-12.9 9.3,-24.4 11,-35.9c0.8,-5.5 1.3,-15.6 0.9,-18c-0.1,-0.4 -0.1,-1.1 -0.2,-2.2c-0.2,-2 -0.3,-5 -0.5,-8c-0.2,-4.5 -0.6,-10.8 -0.9,-13.9c-4.3,-45.4 -15.9,-82.5 -37.9,-121.8c-0.9,-1.5 -1.7,-3 -2.2,-4.2c-0.2,-0.3 -0.3,-0.6 -0.4,-0.8l0,0c3.1,-9.3 15.8,-48.2 25.9,-92.7l0.2,0.2l1.5,2c2.6,3.5 9.5,13.9 12.6,18.9c14.1,23 25.1,47.7 32.9,73.5c18.1,62.1 16.6,128.3 -4.6,189.5z" class="st0" id="svg_62"/>
     <path stroke="null" d="m58383.552362,57553.196495c-0.3,1.6 -5,6.4 -9.7,9.9c-13.8,10.1 -38.5,19.5 -63.6,24c-14.3,2.6 -28.6,3 -32.9,0.9c-2.8,-1.4 -3.2,-2.5 -2.2,-6.1c2.1,-7.5 8.9,-15.7 19.5,-23.4c5.4,-3.9 27.3,-17.2 37.5,-22.8c16.8,-9.2 30.4,-14.7 39.6,-16c2.9,-0.4 6.4,-0.5 7.5,0c1.8,0.7 3.8,6 4.6,12.4c0.4,3.4 0.2,18.4 -0.3,21.1z" id="svg_61"/>
     <path stroke="null" d="m58147.952362,57586.296495c-0.6,1.2 -3.6,2.5 -7,3c-3.4,0.5 -13.8,0.2 -19.7,-0.5c-21.2,-2.8 -43.7,-9.3 -60.1,-17.3c-9.2,-4.5 -15.8,-9 -20.7,-13.9l-2.8,-2.9l-0.3,-3.8c-0.5,-6.6 -0.4,-17 0.4,-20.7c0.5,-3.1 1.6,-6.1 3.1,-8.8c0.8,-1 0.8,-1 4.4,-1c4.4,0 8.1,0.7 14.1,2.6c12.3,3.8 30.6,13 52.9,26.4c18.4,11 25.3,16.4 30.6,23.8c3.6,4.6 6,11.1 5.1,13.1z" id="svg_60"/>
     <path stroke="null" d="m58289.552362,57725.496495c0,0.3 -1.2,5.1 -2.7,10.8c-1.5,5.7 -2.7,10.3 -2.7,10.5c-1.1,0.1 -2.1,0.2 -3.2,0.1l-3.2,0l-4.4,10.4c-2.4,5.7 -4.6,11 -4.9,11.8l-0.6,1.4l-2.1,-3.4l-2.1,-3.4l0,-27.7l-0.8,0.2c-1.7,0.4 -13.8,2 -19.1,2.5c-21.9,2.2 -43.9,1.7 -65.7,-1.4c-3.5,-0.5 -6.5,-0.9 -6.6,-0.8c-0.1,0.1 0,6.5 0.2,14.4l0.3,14.2l-1.7,2.6c-0.9,1.4 -1.8,2.6 -1.8,2.7c-0.3,0.3 -1.3,-1.3 -3.6,-5.9c-2.5,-4.8 -4.3,-9.9 -5.6,-15.2l-0.7,-2.9l-3.1,0.2l-3.1,0.3l-0.8,-3.7c-0.4,-2 -0.9,-5.1 -1.1,-6.8l-0.3,-3.2l-2.6,-2.3c-1.5,-1.3 -3,-2.6 -3.3,-2.8c-0.5,-0.4 -0.7,-1.1 -0.7,-1.7l0,-1.2l12.5,0.1l12.5,0.1l0.4,1.3l0.4,1.3l4.3,0.2c2.4,0.1 10,0.3 16.8,0.5l12.5,0.3l3.2,-5l3.3,-5l4.2,0l-0.1,-10.4l-0.1,-10.4l-5.5,-2.4c-17.7,-7.8 -28.1,-16.7 -32,-27.5c-0.8,-2.2 -0.8,-3 -1,-13c-0.1,-9.9 -0.1,-10.8 0.6,-13c1.4,-5 5.3,-8.9 10.3,-10.2c1.7,-0.5 6.2,-0.5 29.8,-0.5l27.8,0.1l3.1,1.5c3.7,1.8 5.4,3.1 7.5,5.9c2.4,3.2 3.1,5.7 3.1,11.8c0,8.7 -0.6,16.2 -1.5,19.2c-1.3,4.1 -3.3,8 -5.8,11.5c-5,6.4 -14.1,12.8 -22.4,15.7l-2.4,0.9l0.1,10.5l0.1,10.5l2.2,0.2l2.2,0.2l3,4.5l2.9,4.5l13.4,0c7.4,0 13.9,0.1 14.5,0.2c1,0.2 1.2,0.1 2.2,-1.6l1.2,-1.8l11.5,0c8.6,-0.4 11.2,-0.2 11.2,0.1z" id="svg_59"/>
     <path stroke="null" d="m58236.752362,57754.196495c-1.9,1.1 -3.2,1.6 -3.5,1.4c-0.3,-0.1 -1.7,-1.3 -3.2,-2.4l-2.7,-2.2l-2.8,3c-6.1,6.6 -6.3,6.9 -8.1,7c-2.8,0.3 -3.4,-0.2 -6.8,-5.3c-1.8,-2.6 -3.2,-4.8 -3.2,-4.8c0,0 -1.3,-0.2 -2.8,-0.3l-2.8,-0.3l-1.3,2.7l-1.3,2.7l-2.3,-0.7c-1.8,-0.6 -3.6,-1.3 -5.3,-2.1l-3,-1.5l0,-5.7l26.6,0.1l26.6,0.1l0.1,2.7c0.1,3.2 0.2,3.1 -4.2,5.6z" id="svg_58"/>
    </g>
    <path stroke="null" d="m58486.752362,57632.196495c-0.1,-0.4 -0.1,-1.1 -0.2,-2.2c-24,-2.6 -92.5,-4.2 -156.1,48.3c0,0 -20.5,-94 -116.5,-94s-131.6,94 -131.6,94c-53.8,-57.9 -125.8,-53.7 -151.8,-49.9c0,0.6 -0.1,1.3 -0.1,1.9c-0.8,14.5 -0.4,21.4 2,30.5c7.5,28.5 30.6,59.9 66.8,90.7c59.3,50.4 139.7,86.8 200.6,91c63.5,4.3 157.2,-32.8 219.6,-87c9.8,-8.7 19,-17.9 27.6,-27.7c6.2,-7.2 15.4,-19.6 14.7,-19.6c-0.2,0 0,-0.2 0.4,-0.4c0.3,-0.2 0.6,-0.5 0.4,-0.7c-0.1,-0.1 0.1,-0.4 0.4,-0.5c0.3,-0.1 0.5,-0.3 0.4,-0.5s0,-0.4 0.4,-0.5c0.3,-0.1 0.4,-0.4 0.3,-0.6c-0.1,-0.2 0,-0.4 0.2,-0.4c0.2,0 0.4,-0.3 0.4,-0.5s0.2,-0.5 0.4,-0.5c0.2,0 0.4,-0.2 0.4,-0.4c0.3,-0.8 0.8,-1.6 1.3,-2.3c1.5,-2.3 7.5,-13 8.3,-14.8c5.7,-12.9 9.3,-24.4 11,-35.9c0.6,-5.5 1.1,-15.6 0.7,-18zm-250,122c-1.9,1.1 -3.2,1.6 -3.5,1.4c-0.3,-0.1 -1.7,-1.3 -3.2,-2.4l-2.7,-2.2l-2.8,3c-6.1,6.6 -6.3,6.9 -8.1,7c-2.8,0.3 -3.4,-0.2 -6.8,-5.3c-1.8,-2.6 -3.2,-4.8 -3.2,-4.8c0,0 -1.3,-0.2 -2.8,-0.3l-2.8,-0.3l-1.3,2.7l-1.3,2.7l-2.3,-0.7c-1.8,-0.6 -3.6,-1.3 -5.3,-2.1l-3,-1.5l0,-5.7l26.6,0.1l26.6,0.1l0.1,2.7c0.1,3.2 0.2,3.1 -4.2,5.6zm50,-18c-1.5,5.7 -2.7,10.3 -2.7,10.5c-1.1,0.1 -2.1,0.2 -3.2,0.1l-3.2,0l-4.3,10.5c-2.4,5.7 -4.6,11 -4.9,11.8l-0.6,1.4l-2.1,-3.4l-2.1,-3.4l0,-27.7l-0.8,0.2c-1.7,0.4 -13.8,2 -19.1,2.5c-21.9,2.2 -43.9,1.7 -65.7,-1.4c-3.5,-0.5 -6.5,-0.9 -6.6,-0.8c-0.1,0.1 0,6.5 0.2,14.4l0.3,14.2l-1.7,2.6c-0.9,1.4 -1.8,2.6 -1.8,2.7c-0.3,0.3 -1.3,-1.3 -3.6,-5.9c-2.5,-4.8 -4.3,-9.9 -5.6,-15.2l-0.7,-2.9l-3.1,0.2l-3.1,0.3l-0.8,-3.7c-0.4,-2 -0.9,-5.1 -1.1,-6.8l-0.3,-3.2l-2.6,-2.3c-1.5,-1.3 -3,-2.6 -3.3,-2.8c-0.5,-0.4 -0.7,-1.1 -0.7,-1.7l0,-1.2l12.5,0.1l12.5,0.1l0.4,1.3l0.4,1.3l4.3,0.2c2.4,0.1 10,0.3 16.8,0.5l12.5,0.3l3.2,-5l3.3,-5l4.2,0l-0.1,-10.4l-0.1,-10.4l-5.5,-2.4c-17.7,-7.8 -28.1,-16.7 -32,-27.5c-0.8,-2.2 -0.8,-3 -1,-13c-0.1,-9.9 -0.1,-10.8 0.6,-13c1.4,-5 5.3,-8.9 10.3,-10.2c1.7,-0.5 6.2,-0.5 29.8,-0.5l27.8,0.1l3.1,1.5c3.7,1.8 5.4,3.1 7.5,5.9c2.4,3.2 3.1,5.7 3.1,11.8c0,8.7 -0.6,16.2 -1.5,19.2c-1.3,4.1 -3.3,8 -5.8,11.5c-5,6.4 -14.1,12.8 -22.4,15.7l-2.4,0.9l0.1,10.5l0.1,10.5l2.2,0.2l2.2,0.2l3,4.5l2.9,4.5l13.4,0c7.4,0 13.9,0.1 14.5,0.2c1,0.2 1.2,0.1 2.2,-1.6l1.2,-1.8l11.5,0c8.9,0 11.5,0.1 11.5,0.4c-0.3,-0.1 -1.6,4.8 -3.1,10.4z" class="st1" id="svg_56"/>
    <path stroke="null" d="m57930.352362,57628.396495c-6.3,0.9 -10,1.9 -10,1.9" class="st2" id="svg_55"/>
    <path stroke="null" d="m58495.452362,57631.296495c0,0 -3.2,-0.7 -8.9,-1.3" class="st2" id="svg_54"/>
    <path stroke="null" d="m58485.952362,57621.996495c-0.2,-4.5 -0.6,-10.8 -0.9,-13.9c-4.3,-45.4 -15.9,-82.5 -37.9,-121.8c-0.9,-1.5 -1.7,-3 -2.2,-4.2c-0.2,-0.3 -0.3,-0.6 -0.4,-0.8l0,0c3.1,-9.3 15.8,-48.2 25.9,-92.7c13.7,-60.4 22.4,-131 -4.2,-152.2c0,0 -46,-3.4 -107.6,57c-16.7,16.7 -32,34.8 -45.6,54.1l-4.3,-1.4c-24.8,-8.1 -50.5,-13.1 -76.4,-14.8c-7.8,-0.6 -36.9,-0.6 -46.4,0c-28.7,1.9 -50.7,6.2 -75.7,14.9c-1,0.4 -1.9,0.7 -2.8,1c-14.1,-19.2 -29.8,-37.2 -47.1,-53.7c-64.1,-60.7 -111.8,-57.2 -111.8,-57.2c-28.2,21.9 -18.6,95.7 -4,158.1c9.6,41.3 21.4,77.6 25.8,90.7c-0.3,0.7 -0.7,1.5 -1.1,2.2c-23.3,47.2 -35.9,92.7 -38.9,141.1c26.1,-3.8 98,-8.1 151.9,49.9c0,0 35.6,-94 131.6,-94s116.5,94 116.5,94c63.6,-52.5 132.1,-50.8 156.1,-48.3c-0.1,-2 -0.3,-5 -0.5,-8zm-496.7,-174.6c0,0 -37.4,-93.5 -27.8,-146.9c0,0 0,0 0,0c1.6,-9 4.6,-16.9 9.3,-22.9c0,0 42.4,4.2 110.8,80.2c0,0 -13,6.3 -30.4,19.7c0,0 -0.1,0.1 -0.2,0.1c-18.9,14.5 -43.1,37.5 -61.7,69.8l0,0zm158.7,138.9c-0.6,1.2 -3.6,2.5 -7,3c-3.4,0.5 -13.8,0.2 -19.7,-0.5c-21.2,-2.8 -43.7,-9.3 -60.1,-17.3c-9.2,-4.5 -15.8,-9 -20.7,-13.9l-2.8,-2.9l-0.3,-3.8c-0.5,-6.6 -0.4,-17 0.4,-20.7c0.5,-3.1 1.6,-6.1 3.1,-8.8c0.8,-1 0.8,-1 4.4,-1c4.4,0 8.1,0.7 14.1,2.6c12.3,3.8 30.6,13 52.9,26.4c18.4,11 25.3,16.4 30.6,23.8c3.6,4.6 6,11.1 5.1,13.1zm235.6,-33.1c-0.3,1.6 -5,6.4 -9.7,9.9c-13.8,10.1 -38.5,19.5 -63.6,24c-14.3,2.6 -28.6,3 -32.9,0.9c-2.8,-1.4 -3.2,-2.5 -2.2,-6.1c2.1,-7.5 8.9,-15.7 19.5,-23.4c5.4,-3.9 27.3,-17.2 37.5,-22.8c16.8,-9.2 30.4,-14.7 39.6,-16c2.9,-0.4 6.4,-0.5 7.5,0c1.8,0.7 3.8,6 4.6,12.4c0.4,3.4 0.2,18.4 -0.3,21.1zm-16.6,-175.7l-0.2,-0.1c-16.8,-13.4 -29.4,-19.7 -29.4,-19.7c66.1,-76 107,-80.2 107,-80.2c4.5,6.1 7.4,13.9 9,22.9c0,0 0,0 0,0c9.3,53.4 -26.8,147 -26.8,147c-15.1,-26.9 -35.4,-50.7 -59.6,-69.9l0,0z" class="st3" id="svg_53"/>
    <path stroke="null" d="m58312.952362,57347.496495c-0.2,0.2 -0.3,0.5 -0.5,0.7" class="st2" id="svg_52"/>
    <path stroke="null" d="m58444.452362,57481.196495c-0.5,1.4 -0.7,2.1 -0.7,2.1" class="st2" id="svg_51"/>
    <g stroke="null" id="svg_45">
     <g stroke="null" id="svg_46">
      <g stroke="null" id="svg_49">
       <path stroke="null" d="m58453.452362,57300.396495c-7.8,-1 -44.7,-1.2 -86.5,77.1l-0.2,-0.1c-16.8,-13.4 -29.4,-19.7 -29.4,-19.7c66.1,-76 107,-80.2 107,-80.2c4.6,6.1 7.5,13.9 9.1,22.9z" class="st4" id="svg_50"/>
      </g>
      <path stroke="null" d="m58426.652362,57447.396495c-15.2,-27 -35.4,-50.7 -59.7,-69.9c41.8,-78.3 78.6,-78.1 86.5,-77.1c0,0 0,0 0,0c9.3,53.5 -26.8,147 -26.8,147z" class="st5" id="svg_48"/>
      <path stroke="null" d="m58454.952362,57300.696495c-0.5,-0.1 -1,-0.2 -1.5,-0.3l1.5,0.3z" class="st5" id="svg_47"/>
     </g>
    </g>
    <path stroke="null" d="m58110.452362,57351.396495c-1,-1.4 -2.1,-2.8 -3.1,-4.2" class="st2" id="svg_44"/>
    <path stroke="null" d="m57970.352362,57485.096495c1.1,3.4 1.8,5.2 1.8,5.2" class="st2" id="svg_43"/>
    <g stroke="null" id="svg_37">
     <g stroke="null" id="svg_38">
      <g stroke="null" id="svg_41">
       <path stroke="null" d="m58081.552362,57357.696495c0,0 -13,6.3 -30.4,19.7c0,0 -0.1,0.1 -0.2,0.1c-43.3,-78.4 -81.4,-78.1 -89.6,-77.1c1.6,-9 4.6,-16.9 9.3,-22.9c0.1,0 42.5,4.2 110.9,80.2z" class="st4" id="svg_42"/>
      </g>
      <path stroke="null" d="m58051.052362,57377.496495c-19,14.6 -43.2,37.5 -61.8,69.9c0,0 -37.4,-93.5 -27.8,-147c0,0 0,0 0,0c8.1,-1 46.3,-1.2 89.6,77.1z" class="st5" id="svg_40"/>
      <path stroke="null" d="m57961.452362,57300.396495c-0.5,0.1 -1.1,0.2 -1.6,0.3l1.6,-0.3z" class="st5" id="svg_39"/>
     </g>
    </g>
    <path stroke="null" d="m58325.452362,57499.296495c0,0 -32,2 -28,-23s29,-28 36,-27s35,11 30,32s-12,17 -16,18s-22,0 -22,0z" class="st1" id="svg_36"/>
    <path stroke="null" d="m58089.452362,57499.296495c0,0 -32,2 -28,-23s29,-28 36,-27s35,11 30,32s-12,17 -16,18s-22,0 -22,0z" class="st1" id="svg_35"/>
   </g>
  </g>
 </g>
</svg>