<svg width="32" height="32" xmlns="http://www.w3.org/2000/svg">
 <!-- Created with SVG Editor - http://github.com/mzalive/SVG Editor/ -->

 <g>
  <title>background</title>
  <rect fill="none" id="canvas_background" height="34" width="34" y="-1" x="-1"/>
  <g display="none" overflow="visible" y="0" x="0" height="100%" width="100%" id="canvasGrid">
   <rect fill="url(#gridpattern)" stroke-width="0" y="0" x="0" height="100%" width="100%"/>
  </g>
 </g>
 <g>
  <title>Layer 1</title>
  <defs>
   <style>.cls-1{fill:#23292f;}</style>
  </defs>
  <ellipse ry="16" rx="16" id="svg_11" cy="15.999999" cx="16" stroke-width="0" stroke="#000" fill="#fff"/>
  <g stroke="null" id="svg_10">
   <g stroke="null" transform="matrix(0.044379288432325026,0,0,0.044379288432325026,-55.67839823896793,-57.24436672971569) " id="svg_5">
    <g stroke="null" id="svg_6">
     <path stroke="null" id="svg_8" d="m1796.13171,1438.417711l74,0l-154,152.48c-55.77,55.19 -146.19,55.19 -202,0l-154.06,-152.48l74.06,0l117,115.83a91.11,91.11 0 0 0 127.91,0l117.09,-115.83z" class="cls-1"/>
     <path stroke="null" id="svg_9" d="m1433.18171,1862.417711l-74.05,0l155,-153.42c55.77,-55.19 146.19,-55.19 202,0l155,153.42l-74,0l-118,-116.77a91.11,91.11 0 0 0 -127.91,0l-118.04,116.77z" class="cls-1"/>
    </g>
   </g>
  </g>
 </g>
</svg>