<svg width="32" height="32" xmlns="http://www.w3.org/2000/svg">
 <!-- Created with SVG Editor - http://github.com/mzalive/SVG Editor/ -->

 <g>
  <title>background</title>
  <rect fill="none" id="canvas_background" height="34" width="34" y="-1" x="-1"/>
  <g display="none" overflow="visible" y="0" x="0" height="100%" width="100%" id="canvasGrid">
   <rect fill="url(#gridpattern)" stroke-width="0" y="0" x="0" height="100%" width="100%"/>
  </g>
 </g>
 <g>
  <title>Layer 1</title>
  <ellipse ry="16" rx="16" id="svg_9" cy="16" cx="16" stroke-width="0" stroke="#000" fill="#fff"/>
  <g stroke="null" transform="rotate(180 16.00011444091797,16.00009536743164) " id="svg_8">
   <g stroke="null" transform="matrix(-0.015525887303164888,0,0,-0.015525887303164888,3016.5803819703733,2996.267297680288) " id="svg_5">
    <path stroke="null" id="svg_7" fill="#2c7df7" d="m193433.76078,192751.196594q-170.51,0 -248.91,-82.14a253.6,253.6 0 0 1 -78.15,-177a117.39,117.39 0 0 1 13.69,-58.5a101.21,101.21 0 0 1 37.33,-37.36a130.22,130.22 0 0 1 116.24,0a99.55,99.55 0 0 1 37.12,37.36a115,115 0 0 1 14.18,58.5a111.73,111.73 0 0 1 -19.91,68.45a92.78,92.78 0 0 1 -47.31,34.62a129.18,129.18 0 0 0 74.67,46.55a370,370 0 0 0 101.8,14.68a226.91,226.91 0 0 0 128.19,-38.33a224,224 0 0 0 83.63,-113.25a492,492 0 0 0 27.38,-169.5a465.07,465.07 0 0 0 -29.87,-176.23a217.54,217.54 0 0 0 -86.37,-109.52a229.68,229.68 0 0 0 -124.43,-35.59a236.75,236.75 0 0 0 -107.78,36.59l-79.92,40.07l0,-40.07l359.17,-481.83l-497.81,0l0,500a178.9,178.9 0 0 0 27.38,102.3a94.34,94.34 0 0 0 83.63,40.07a139.85,139.85 0 0 0 82.63,-29.12a298.38,298.38 0 0 0 69.2,-71.19a24.86,24.86 0 0 1 9,-11.94a18.4,18.4 0 0 1 12,-4.48a41.55,41.55 0 0 1 23.4,9.95a49.82,49.82 0 0 1 12.69,33.85a197.86,197.86 0 0 1 -4.48,24.89a241,241 0 0 1 -85.38,106a211.78,211.78 0 0 1 -119.76,36.38q-161.67,0 -224,-63.72a238.67,238.67 0 0 1 -61.73,-174.24l0,-498.75l-253.2,0l0,-92.9l254.38,0l0,-211.82l-58.24,-58.28l0,-47.5l169,0l63.48,32.86l0,284.74l657.6,-2l65.47,65.71l-403.23,405.19a271,271 0 0 1 76.16,-18.42a330.1,330.1 0 0 1 147.38,42.07a302.7,302.7 0 0 1 126.95,113.29a399.78,399.78 0 0 1 57.25,136.65a575.65,575.65 0 0 1 13.69,117a489.39,489.39 0 0 1 -49.78,216.79a317.92,317.92 0 0 1 -149.35,149.35a483.27,483.27 0 0 1 -215.08,49.77z"/>
   </g>
  </g>
 </g>
</svg>