<svg width="32" height="32" xmlns="http://www.w3.org/2000/svg">
 <defs>
  <linearGradient y2="0.15263" x2="0.84693" y1="0.84286" x1="0.15669" id="linear-gradient">
   <stop stop-color="#cf8724" offset="0"/>
   <stop stop-color="#fdce58" offset="1"/>
  </linearGradient>
 </defs>
 <title>z</title>
 <g>
  <title>Layer 1</title>
  <g stroke="null" data-name="Layer 2" id="Layer_2">
   <g stroke="null" data-name="Layer 1" id="Layer_1-2">
    <path stroke="null" id="svg_1" fill="url(#linear-gradient)" d="m16.16604,29.32891c-7.24711,0 -13.163,-5.92174 -13.163,-13.16287c0,-7.24711 5.92187,-13.163 13.163,-13.163c7.24711,0 13.16287,5.92187 13.16287,13.163c0,7.24711 -5.91576,13.16287 -13.16287,13.16287z" class="cls-1"/>
    <path stroke="null" id="svg_2" d="m16,31.90395c-8.74717,0 -15.90395,-7.15678 -15.90395,-15.90395s7.15678,-15.90395 15.90395,-15.90395s15.90395,7.15678 15.90395,15.90395s-7.15678,15.90395 -15.90395,15.90395zm0,-28.27162c-6.80129,0 -12.36767,5.56638 -12.36767,12.36767s5.56638,12.36767 12.36767,12.36767s12.36767,-5.56638 12.36767,-12.36767s-5.56638,-12.36767 -12.36767,-12.36767z"/>
    <path stroke="null" id="svg_3" d="m15.63166,20.30793l6.89175,0l0,3.44594l-4.06632,0l0,2.91564l-3.53627,0l0,-2.8253l-4.24101,0c0,-1.15068 -0.17469,-2.29526 0.09033,-3.35548c0.09033,-0.53017 0.70486,-1.06035 1.15056,-1.59039c1.32537,-1.59039 2.65074,-3.18079 4.06645,-4.77118c0.53005,-0.62051 1.06022,-1.15068 1.68073,-1.85542l-6.6266,0l0,-3.44594l3.88553,0l0,-2.91526l3.44594,0l0,2.82454l4.24101,0c0,1.15056 0.17469,2.29526 -0.09033,3.35548c-0.09033,0.53017 -0.70486,1.06022 -1.15068,1.59039c-1.32524,1.59039 -2.65062,3.18079 -4.06632,4.77118c-0.5303,0.62089 -1.06022,1.23529 -1.67475,1.8558z"/>
   </g>
  </g>
 </g>
</svg>